<svg id="visual" viewBox="0 0 960 540" width="960" height="540" xmlns="http://www.w3.org/2000/svg" xmlns:xlink="http://www.w3.org/1999/xlink" version="1.1"><rect x="0" y="0" width="960" height="540" fill="#000000"></rect><path d="M0 369L22.8 368.5C45.7 368 91.3 367 137 370.2C182.7 373.3 228.3 380.7 274 378.3C319.7 376 365.3 364 411.2 362.3C457 360.7 503 369.3 548.8 372.8C594.7 376.3 640.3 374.7 686 377.3C731.7 380 777.3 387 823 382.7C868.7 378.3 914.3 362.7 937.2 354.8L960 347L960 541L937.2 541C914.3 541 868.7 541 823 541C777.3 541 731.7 541 686 541C640.3 541 594.7 541 548.8 541C503 541 457 541 411.2 541C365.3 541 319.7 541 274 541C228.3 541 182.7 541 137 541C91.3 541 45.7 541 22.8 541L0 541Z" fill="#c4175c"></path><path d="M0 396L22.8 398C45.7 400 91.3 404 137 399C182.7 394 228.3 380 274 373.2C319.7 366.3 365.3 366.7 411.2 376.7C457 386.7 503 406.3 548.8 410.2C594.7 414 640.3 402 686 392.5C731.7 383 777.3 376 823 373.3C868.7 370.7 914.3 372.3 937.2 373.2L960 374L960 541L937.2 541C914.3 541 868.7 541 823 541C777.3 541 731.7 541 686 541C640.3 541 594.7 541 548.8 541C503 541 457 541 411.2 541C365.3 541 319.7 541 274 541C228.3 541 182.7 541 137 541C91.3 541 45.7 541 22.8 541L0 541Z" fill="#d52d74"></path><path d="M0 448L22.8 447.8C45.7 447.7 91.3 447.3 137 439C182.7 430.7 228.3 414.3 274 416.5C319.7 418.7 365.3 439.3 411.2 441.7C457 444 503 428 548.8 418.3C594.7 408.7 640.3 405.3 686 412.8C731.7 420.3 777.3 438.7 823 447.3C868.7 456 914.3 455 937.2 454.5L960 454L960 541L937.2 541C914.3 541 868.7 541 823 541C777.3 541 731.7 541 686 541C640.3 541 594.7 541 548.8 541C503 541 457 541 411.2 541C365.3 541 319.7 541 274 541C228.3 541 182.7 541 137 541C91.3 541 45.7 541 22.8 541L0 541Z" fill="#e4408e"></path><path d="M0 464L22.8 467.2C45.7 470.3 91.3 476.7 137 477.7C182.7 478.7 228.3 474.3 274 468.8C319.7 463.3 365.3 456.7 411.2 452.7C457 448.7 503 447.3 548.8 452.3C594.7 457.3 640.3 468.7 686 472.5C731.7 476.3 777.3 472.7 823 465.7C868.7 458.7 914.3 448.3 937.2 443.2L960 438L960 541L937.2 541C914.3 541 868.7 541 823 541C777.3 541 731.7 541 686 541C640.3 541 594.7 541 548.8 541C503 541 457 541 411.2 541C365.3 541 319.7 541 274 541C228.3 541 182.7 541 137 541C91.3 541 45.7 541 22.8 541L0 541Z" fill="#f253a9"></path><path d="M0 499L22.8 496.5C45.7 494 91.3 489 137 486.5C182.7 484 228.3 484 274 486.7C319.7 489.3 365.3 494.7 411.2 493.5C457 492.3 503 484.7 548.8 480.7C594.7 476.7 640.3 476.3 686 479.2C731.7 482 777.3 488 823 489.7C868.7 491.3 914.3 488.7 937.2 487.3L960 486L960 541L937.2 541C914.3 541 868.7 541 823 541C777.3 541 731.7 541 686 541C640.3 541 594.7 541 548.8 541C503 541 457 541 411.2 541C365.3 541 319.7 541 274 541C228.3 541 182.7 541 137 541C91.3 541 45.7 541 22.8 541L0 541Z" fill="#ff66c4"></path></svg>